<?xml version="1.0" encoding="UTF-8"?>
<svg id="Ebene_2" data-name="Ebene 2" xmlns="http://www.w3.org/2000/svg" viewBox="0 0 868.23 121.23">
  <path d="M77.41,27.97c-7.7-4.52-16.45-6.78-26.25-6.78s-18.2,2.26-25.96,6.78c-7.76,4.52-13.91,10.53-18.42,18.04-4.52,7.51-6.78,15.85-6.78,25.01s2.26,17.53,6.78,25.11c4.52,7.57,10.63,13.62,18.33,18.14,7.7,4.52,16.39,6.78,26.06,6.78s18.39-2.26,26.16-6.78c7.76-4.52,13.9-10.56,18.42-18.14,4.52-7.57,6.78-15.94,6.78-25.11s-2.26-17.34-6.78-24.91c-4.52-7.57-10.63-13.62-18.33-18.14ZM72.26,83.43c-2.1,3.69-4.96,6.65-8.59,8.88-3.63,2.23-7.8,3.34-12.5,3.34s-8.69-1.11-12.31-3.34c-3.63-2.22-6.49-5.18-8.59-8.88-2.1-3.69-3.15-7.76-3.15-12.22s1.05-8.52,3.15-12.22c2.1-3.69,4.96-6.65,8.59-8.88,3.63-2.23,7.73-3.34,12.31-3.34s8.88,1.12,12.5,3.34c3.63,2.23,6.49,5.19,8.59,8.88,2.1,3.69,3.15,7.76,3.15,12.22s-1.05,8.53-3.15,12.22Z"/>
  <path d="M188.04,67.77c0,4.84-.76,9.32-2.29,13.46-1.53,4.14-3.85,7.45-6.97,9.93-3.12,2.48-7.03,3.72-11.74,3.72s-8.43-1.24-11.55-3.72c-3.12-2.48-5.44-5.79-6.97-9.93-1.53-4.13-2.29-8.56-2.29-13.27V24.05h-27.11v46.96c0,9.16,1.81,17.56,5.44,25.2,3.63,7.64,9,13.68,16.13,18.14,7.13,4.45,15.91,6.68,26.34,6.68s19.41-2.23,26.54-6.68c7.13-4.45,12.5-10.47,16.13-18.04,3.63-7.57,5.44-16,5.44-25.3V24.05h-27.11v43.72Z"/>
  <path d="M271.66,0h-27.11v24.05h-17.37v22.91h17.37v34.17c0,7.89,1.53,14.86,4.58,20.9,3.05,6.05,7.6,10.76,13.65,14.13,6.04,3.37,13.58,5.06,22.62,5.06,3.44,0,6.97-.41,10.6-1.24,3.63-.83,6.65-1.94,9.07-3.34v-24.25c-2.29,1.53-5.03,2.67-8.21,3.44-3.18.76-6.18,1.15-8.97,1.15-4.96,0-8.91-1.46-11.84-4.39-2.93-2.93-4.39-7-4.39-12.22v-33.41h33.41v-22.91h-33.41V0Z"/>
  <path d="M469.34,27.3c-6.81-4.45-15.37-6.68-25.68-6.68-7.51,0-14.19,1.5-20.05,4.49-5.86,2.99-10.5,7.13-13.94,12.41-.84,1.28-1.57,2.62-2.21,4.01-.6-1.39-1.3-2.72-2.09-4.01-3.25-5.28-7.83-9.42-13.74-12.41-5.92-2.99-12.95-4.49-21.1-4.49-10.18,0-18.68,2.23-25.49,6.68-6.81,4.46-11.93,10.34-15.37,17.66-3.44,7.32-5.15,15.37-5.15,24.15v49.45h27.11v-45.05c0-4.84.7-9.26,2.1-13.27,1.4-4.01,3.63-7.22,6.68-9.64,3.05-2.42,7.13-3.63,12.22-3.63s8.84,1.18,12.03,3.53c3.18,2.36,5.47,5.54,6.87,9.55,1.4,4.01,2.1,8.5,2.1,13.46v45.05h27.11v-45.24c0-4.84.73-9.26,2.2-13.27,1.46-4.01,3.72-7.19,6.78-9.55,3.05-2.35,7.06-3.53,12.03-3.53s9,1.21,12.12,3.63c3.12,2.42,5.41,5.63,6.87,9.64,1.46,4.01,2.2,8.5,2.2,13.46v44.86h27.11v-49.45c0-8.91-1.75-16.99-5.25-24.25-3.5-7.26-8.66-13.11-15.46-17.56Z"/>
  <path d="M585.51,27.78c-7.76-4.39-16.55-6.59-26.34-6.59s-18.36,2.26-26.06,6.78c-7.7,4.52-13.81,10.57-18.33,18.14-4.52,7.57-6.78,15.88-6.78,24.91s2,17.53,6.01,25.11c4.01,7.57,9.51,13.62,16.51,18.14,7,4.52,15.08,6.78,24.25,6.78,7.89,0,14.63-1.69,20.24-5.06,3.81-2.29,7.05-5.19,9.74-8.67v11.24h25.77v-47.54c0-9.55-2.23-18.04-6.68-25.49-4.46-7.45-10.57-13.36-18.33-17.75ZM580.26,83.43c-2.1,3.69-4.96,6.65-8.59,8.88-3.63,2.23-7.8,3.34-12.5,3.34s-8.69-1.11-12.31-3.34c-3.63-2.22-6.49-5.18-8.59-8.88-2.1-3.69-3.15-7.76-3.15-12.22s1.05-8.52,3.15-12.22c2.1-3.69,4.96-6.65,8.59-8.88,3.63-2.23,7.73-3.34,12.31-3.34s8.88,1.12,12.5,3.34c3.63,2.23,6.49,5.19,8.59,8.88,2.1,3.69,3.15,7.76,3.15,12.22s-1.05,8.53-3.15,12.22Z"/>
  <path d="M675.05,21.57c-9.29,0-17.06,1.88-23.29,5.63-6.24,3.76-10.88,8.85-13.94,15.27-3.05,6.43-4.58,13.72-4.58,21.86v54.22h27.11v-53.26c0-5.6,1.53-10.02,4.58-13.27s7.25-4.87,12.6-4.87c2.42,0,4.96.32,7.64.96,2.67.64,5.15,1.66,7.44,3.05v-26.35c-2.42-1.02-5.15-1.81-8.21-2.39-3.05-.57-6.17-.86-9.35-.86Z"/>
  <path d="M770.88,24.05l-26.16,31.5c-1.4,1.67-2.54,3.39-3.44,5.15h-8.97V0h-27.11v118.55h27.11v-37.61h8.76c.89,1.9,2.04,3.74,3.46,5.54l26.16,32.07h32.26l-39.19-47.62,39.38-46.88h-32.26Z"/>
  <polygon points="819.74 3.23 827.27 3.23 827.27 24.73 830.86 24.73 830.86 3.23 838.39 3.23 838.39 0 819.74 0 819.74 3.23"/>
  <polygon points="867.56 0 864.64 0 863.83 0 855.67 19.39 847.53 0 846.73 0 843.77 0 843.13 0 843.13 24.73 846.73 24.73 846.73 6.8 854.52 24.73 856.81 24.73 864.64 6.72 864.64 24.73 868.23 24.73 868.23 0 867.56 0"/>
</svg>